<?xml version="1.0" encoding="UTF-8" standalone="no"?>
<!-- Created with Inkscape (http://www.inkscape.org/) -->

<svg
   width="172.63892mm"
   height="290.6976mm"
   viewBox="0 0 172.63892 290.6976"
   version="1.1"
   id="svg51651"
   sodipodi:docname="card.svg"
   inkscape:export-filename="C:\Users\cristiano_silva\OneDrive\Documentos\GitHub\DesafioPokemon\images\png_tipos\cards\card_aco.png"
   inkscape:export-xdpi="96"
   inkscape:export-ydpi="96"
   inkscape:version="1.1.1 (3bf5ae0d25, 2021-09-20)"
   xmlns:inkscape="http://www.inkscape.org/namespaces/inkscape"
   xmlns:sodipodi="http://sodipodi.sourceforge.net/DTD/sodipodi-0.dtd"
   xmlns="http://www.w3.org/2000/svg"
   xmlns:svg="http://www.w3.org/2000/svg">
  <sodipodi:namedview
     id="namedview51653"
     pagecolor="#ffffff"
     bordercolor="#666666"
     borderopacity="1.0"
     inkscape:pageshadow="2"
     inkscape:pageopacity="0.0"
     inkscape:pagecheckerboard="0"
     inkscape:document-units="mm"
     showgrid="false"
     showguides="true"
     inkscape:guide-bbox="true"
     inkscape:zoom="0.20361829"
     inkscape:cx="-665.46086"
     inkscape:cy="233.27964"
     inkscape:window-width="1920"
     inkscape:window-height="991"
     inkscape:window-x="-9"
     inkscape:window-y="-9"
     inkscape:window-maximized="1"
     inkscape:current-layer="layer1"
     fit-margin-top="0"
     fit-margin-left="0"
     fit-margin-right="0"
     fit-margin-bottom="0">
    <sodipodi:guide
       position="16.786433,80.767396"
       orientation="1,0"
       id="guide91883" />
    <sodipodi:guide
       position="150.85447,77.554436"
       orientation="1,0"
       id="guide91885" />
    <sodipodi:guide
       position="9.5293459,134.86907"
       orientation="1,0"
       id="guide3691" />
    <sodipodi:guide
       position="12.029345,171.00645"
       orientation="1,0"
       id="guide3693" />
    <sodipodi:guide
       position="164.10738,195.17596"
       orientation="1,0"
       id="guide3717" />
    <sodipodi:guide
       position="161.60738,135.96013"
       orientation="1,0"
       id="guide3719" />
    <sodipodi:guide
       position="150.85447,12.647363"
       orientation="0,-1"
       id="guide3743" />
  </sodipodi:namedview>
  <defs
     id="defs51648">
    <filter
       inkscape:collect="always"
       style="color-interpolation-filters:sRGB"
       id="filter102085"
       x="-0.042560372"
       y="-0.023971074"
       width="1.0851207"
       height="1.0479421">
      <feGaussianBlur
         inkscape:collect="always"
         stdDeviation="2.2391049"
         id="feGaussianBlur102087" />
    </filter>
    <filter
       inkscape:collect="always"
       style="color-interpolation-filters:sRGB"
       id="filter102085-4"
       x="-0.042560372"
       y="-0.023971074"
       width="1.0851207"
       height="1.0479421">
      <feGaussianBlur
         inkscape:collect="always"
         stdDeviation="2.2391049"
         id="feGaussianBlur102087-5" />
    </filter>
    <pattern
       patternUnits="userSpaceOnUse"
       width="3.2144467"
       height="120.19816"
       patternTransform="translate(314.64252,530.25238)"
       id="pattern1267">
      <path
         style="fill:#808080;stroke:#808080;stroke-width:3.21445;stroke-linecap:round;stroke-linejoin:miter;stroke-miterlimit:4;stroke-dasharray:none;stroke-opacity:1"
         d="M 1.6072233,1.6072233 V 118.59093"
         id="path68847-0" />
    </pattern>
  </defs>
  <g
     inkscape:label="Camada 1"
     inkscape:groupmode="layer"
     id="layer1"
     transform="translate(-22.645338,-8.3480338)">
    <rect
       style="display:inline;fill:#800000;stroke-width:5.99048;stroke-linecap:round;stroke-linejoin:round"
       id="rect888-5-7"
       width="239.58275"
       height="335.82892"
       x="-5.9464831"
       y="0.49737507" />
    <path
       style="display:inline;opacity:0.527166;fill:none;stroke:#000000;stroke-width:3.12801;stroke-linecap:round;stroke-linejoin:round;stroke-miterlimit:4;stroke-dasharray:none;stroke-opacity:1;filter:url(#filter102085)"
       d="M 27.137038,291.2719 H 182.89709 l 5.4893,-2.11587 1.76278,-1.89059 -0.11238,-280.087985 -3.4148,-5.3317565"
       id="path101830"
       transform="matrix(0.95188573,0,0,0.96632231,8.9040956,10.503586)"
       sodipodi:nodetypes="cccccc"
       inkscape:export-filename="C:\Users\cristiano_silva\OneDrive\Documentos\GitHub\DesafioPokemon\images\png_tipos\cards\card_voador.png"
       inkscape:export-xdpi="96"
       inkscape:export-ydpi="96" />
    <path
       id="rect52589"
       style="display:inline;opacity:1;fill:#ffffff;stroke:none;stroke-width:0.499203;stroke-miterlimit:4;stroke-dasharray:none;stroke-opacity:1"
       d="m 36.428658,9.5139693 c -5.54,0 -9.999905,4.4177157 -9.999905,9.9053077 V 281.28569 c 0,5.4876 4.459905,9.90533 9.999905,9.90533 H 181.50094 c 5.54,0 9.9999,-4.41773 9.9999,-9.90533 V 19.419277 c 0,-5.487592 -4.4599,-9.9053077 -9.9999,-9.9053077 z m 0.743108,5.0025617 H 181.75364 c 2.77,0 4.99969,2.208602 4.99969,4.952398 V 281.42853 c 0,2.74377 -2.22969,4.95237 -4.99969,4.95237 H 37.171766 c -2.769999,0 -5.000212,-2.2086 -5.000212,-4.95237 V 19.468929 c 0,-2.743796 2.230213,-4.952398 5.000212,-4.952398 z"
       inkscape:export-filename="C:\Users\cristiano_silva\OneDrive\Documentos\GitHub\DesafioPokemon\images\png_tipos\cards\card_voador.png"
       inkscape:export-xdpi="96"
       inkscape:export-ydpi="96" />
    <path
       id="rect52589-0"
       style="display:inline;fill:#ffffff;stroke:none;stroke-width:0.375615;stroke-miterlimit:4;stroke-dasharray:none;stroke-opacity:1"
       d="m 38.647616,107.90897 c -2.198391,0 -3.968486,1.77166 -3.968486,3.97263 v 168.0349 c 0,2.20097 1.770095,3.97314 3.968486,3.97314 H 180.29861 c 2.1984,0 3.96797,-1.77217 3.96797,-3.97314 V 111.8816 c 0,-2.20097 -1.76957,-3.97263 -3.96797,-3.97263 z m 70.710924,40.96898 h 0.0211 c 0.22175,0 0.40037,0.17883 0.40037,0.40086 v 30.78435 c 0,0.22202 -0.17862,0.40086 -0.40037,0.40086 h -0.0211 c -0.22176,0 -0.40039,-0.17884 -0.40039,-0.40086 v -30.78435 c 0,-0.22203 0.17863,-0.40086 0.40039,-0.40086 z m -47.064062,2.43696 c 0.251929,0 0.499023,0.0199 0.738739,0.059 0.245271,0.04 0.482689,0.0988 0.707982,0.17553 0.215302,0.0734 0.421056,0.16211 0.614163,0.26433 0.190892,0.10222 0.368057,0.21663 0.530091,0.3444 h 2.595072 c 0.218634,0 0.42832,0.0444 0.620319,0.12318 0.198643,0.0822 0.378211,0.20467 0.528034,0.35467 0.149828,0.15 0.271012,0.32865 0.354249,0.52865 0.0799,0.19112 0.123036,0.40104 0.123036,0.62105 v 9.45478 c 0,0.21889 -0.04424,0.42882 -0.123036,0.62104 -0.08213,0.19889 -0.204421,0.37918 -0.354249,0.52917 -0.149823,0.15001 -0.328283,0.27082 -0.528034,0.35415 -0.190889,0.08 -0.400575,0.12319 -0.620319,0.12319 H 57.093562 c -0.218645,0 -0.428322,-0.0443 -0.620316,-0.12319 -0.198653,-0.0822 -0.378225,-0.20414 -0.528037,-0.35415 -0.149826,-0.14999 -0.271026,-0.32916 -0.354248,-0.52917 -0.07761,-0.19333 -0.122014,-0.40318 -0.122011,-0.62207 v -9.45478 c 0,-0.21888 0.04429,-0.42882 0.123035,-0.62104 0.08213,-0.1989 0.204419,-0.37864 0.354246,-0.52866 0.149815,-0.15001 0.328269,-0.27132 0.528039,-0.35466 0.190881,-0.0789 0.400647,-0.12216 0.619291,-0.12216 h 2.609428 c 0.163146,-0.12667 0.340312,-0.24217 0.530092,-0.3444 0.193105,-0.10334 0.398859,-0.19209 0.614162,-0.26433 0.225292,-0.0767 0.462712,-0.13554 0.707982,-0.17553 0.239705,-0.0388 0.487321,-0.059 0.739253,-0.059 z m 73.856082,0 h 3.66807 c 0.0643,0 0.12278,0.0259 0.16558,0.0698 0.0427,0.0428 0.0697,0.10147 0.0697,0.16578 v 13.08199 c 0,0.0643 -0.0258,0.12294 -0.0697,0.16578 -0.0427,0.0439 -0.10248,0.0698 -0.16558,0.0698 h -3.66807 c -0.0643,0 -0.12229,-0.0259 -0.16507,-0.0698 -0.0438,-0.0428 -0.0702,-0.10146 -0.0702,-0.16578 v -13.08199 c 0,-0.0643 0.0263,-0.12294 0.0702,-0.16578 0.0427,-0.0439 0.10078,-0.0698 0.16507,-0.0698 z m 0.19378,0.4296 v 12.69397 h 3.28051 v -1.25236 h -1.68562 c -0.13626,0 -0.24558,-0.0947 -0.24558,-0.21198 0,-0.11725 0.11041,-0.21197 0.24558,-0.21197 h 1.68562 v -1.28316 h -0.80848 c -0.13625,0 -0.24556,-0.0947 -0.24556,-0.21197 0,-0.11726 0.11039,-0.21198 0.24556,-0.21198 h 0.80848 v -1.19076 h -1.68562 c -0.13626,0 -0.24558,-0.0947 -0.24558,-0.21198 0,-0.11725 0.11041,-0.21198 0.24558,-0.21198 h 1.68562 v -1.32575 h -0.80848 c -0.13625,0 -0.24556,-0.0947 -0.24556,-0.21198 0,-0.11725 0.11039,-0.21197 0.24556,-0.21197 h 0.80848 v -1.2154 h -1.68562 c -0.13626,0 -0.24558,-0.0947 -0.24558,-0.21198 0,-0.11724 0.11041,-0.21198 0.24558,-0.21198 h 1.68562 v -1.27956 h -0.80848 c -0.13625,0 -0.24556,-0.0947 -0.24556,-0.21197 0,-0.11725 0.11039,-0.21198 0.24556,-0.21198 h 0.80848 v -1.26262 h -1.68562 c -0.13626,0 -0.24558,-0.0947 -0.24558,-0.21198 0,-0.11726 0.11041,-0.21197 0.24558,-0.21197 h 1.68562 v -0.91669 z m -74.050885,0.14423 c -0.223075,0 -0.440895,0.0173 -0.64954,0.0508 -0.213084,0.0367 -0.41935,0.088 -0.614677,0.15347 -0.195328,0.0657 -0.379683,0.14686 -0.550595,0.2402 -0.172024,0.0933 -0.3319,0.20095 -0.477285,0.31874 -0.02552,0.0255 -0.05633,0.0455 -0.09074,0.059 -0.03439,0.0144 -0.07095,0.0211 -0.108682,0.0211 h -0.145595 v 0.002 h -2.562777 c -0.142069,0 -0.276077,0.0289 -0.400384,0.0801 -0.128732,0.0533 -0.244271,0.13224 -0.341946,0.22891 -0.09769,0.0978 -0.175363,0.21345 -0.228644,0.34234 -0.05109,0.12334 -0.07997,0.25916 -0.07997,0.40137 v 9.45427 c 0,0.14222 0.02888,0.27804 0.07997,0.40137 0.05326,0.1289 0.132089,0.24407 0.228644,0.34183 0.09769,0.0978 0.213215,0.17557 0.341946,0.22891 0.123189,0.0512 0.258315,0.0801 0.400384,0.0801 h 10.386963 c 0.142059,0 0.276088,-0.029 0.400385,-0.0801 0.128743,-0.0533 0.24428,-0.13225 0.341946,-0.22891 0.09767,-0.0978 0.175372,-0.21293 0.228646,-0.34183 0.05105,-0.12333 0.07997,-0.25915 0.07997,-0.40137 v -9.45581 c 0,-0.14221 -0.02892,-0.27751 -0.07997,-0.40085 -0.05328,-0.1289 -0.132093,-0.24458 -0.228646,-0.34235 -0.09767,-0.0978 -0.213203,-0.17559 -0.341946,-0.22891 -0.123187,-0.0511 -0.258328,-0.0801 -0.400386,-0.0801 H 64.78702 c -0.0033,0 -0.008,-3e-5 -0.01127,-0.001 -0.02886,-9.9e-4 -0.05889,-0.006 -0.08664,-0.0164 l -0.0021,-0.001 c -0.02996,-0.0113 -0.05754,-0.0267 -0.08306,-0.0488 -0.145386,-0.12112 -0.307488,-0.23131 -0.48395,-0.32797 -0.174238,-0.0956 -0.361677,-0.17756 -0.560336,-0.24534 -0.195324,-0.0667 -0.401937,-0.11805 -0.617239,-0.15244 -0.208646,-0.0333 -0.424855,-0.0508 -0.649023,-0.0508 z m 0.03281,0.86279 c 0.375101,0 0.733805,0.0743 1.0612,0.20992 0.339606,0.14113 0.645997,0.34804 0.901254,0.6036 0.255258,0.25555 0.461426,0.56231 0.602373,0.90231 0.135399,0.32778 0.209677,0.68636 0.209677,1.06194 0,0.37666 -0.07427,0.73466 -0.209677,1.06245 -0.140947,0.34 -0.347115,0.64676 -0.602373,0.90231 -0.255257,0.25555 -0.561648,0.46195 -0.901254,0.60308 -0.327395,0.13555 -0.686099,0.20992 -1.0612,0.20992 -0.37512,0 -0.733293,-0.0743 -1.06069,-0.20992 -0.339604,-0.14113 -0.645997,-0.34753 -0.901253,-0.60308 -0.255257,-0.25555 -0.461939,-0.56231 -0.602886,-0.90231 -0.135395,-0.32779 -0.209678,-0.6869 -0.209678,-1.06245 0,-0.37557 0.07428,-0.73416 0.209678,-1.06194 0.140945,-0.34 0.347629,-0.64676 0.602886,-0.90231 0.255256,-0.25556 0.561649,-0.46248 0.901253,-0.6036 0.327397,-0.13555 0.68557,-0.20992 1.06069,-0.20992 z m 0.147645,0.41831 v 0.35877 c 0,0.0467 -0.01873,0.0876 -0.0487,0.11753 -0.02995,0.03 -0.07189,0.0488 -0.117399,0.0488 -0.04661,0 -0.08794,-0.019 -0.117912,-0.0488 -0.02997,-0.03 -0.0487,-0.072 -0.0487,-0.11753 v -0.35775 c -0.256368,0.0201 -0.500549,0.0809 -0.72695,0.17657 -0.234172,0.0988 -0.448566,0.23331 -0.637235,0.39777 l 0.233259,0.23354 c 0.03218,0.0322 0.0487,0.0754 0.0487,0.11753 0,0.0434 -0.01652,0.0852 -0.0487,0.11754 -0.03218,0.0322 -0.07573,0.0488 -0.117911,0.0488 -0.04217,0 -0.08522,-0.0166 -0.117399,-0.0488 l -0.233258,-0.23302 c -0.164253,0.18999 -0.298622,0.40552 -0.396285,0.64106 -0.09433,0.22777 -0.154925,0.47312 -0.173792,0.73088 h 0.370651 c 0.04661,0 0.08743,0.0189 0.117401,0.0488 0.02996,0.03 0.0487,0.0724 0.0487,0.11805 0,0.0455 -0.01874,0.0876 -0.0487,0.11754 -0.02995,0.03 -0.0719,0.0488 -0.117401,0.0488 H 59.97009 c 0.01666,0.26 0.07586,0.50909 0.170203,0.7391 0.09656,0.23779 0.232033,0.45558 0.396286,0.64671 l 0.229669,-0.22995 c 0.03218,-0.0322 0.07522,-0.0488 0.117397,-0.0488 0.04328,0 0.08572,0.0166 0.117911,0.0488 0.03218,0.0322 0.0487,0.0754 0.0487,0.11754 0,0.0434 -0.01653,0.0859 -0.0487,0.11805 l -0.231208,0.23097 c 0.190889,0.16777 0.411014,0.30548 0.648512,0.40547 0.230843,0.0966 0.480413,0.15775 0.742328,0.17554 v -0.28537 c 0,-0.0455 0.01874,-0.0881 0.0487,-0.11805 0.02995,-0.0301 0.07241,-0.0488 0.117909,-0.0488 0.0455,0 0.08743,0.019 0.1174,0.0488 0.02997,0.03 0.0487,0.0724 0.0487,0.11805 v 0.28742 c 0.261913,-0.019 0.512939,-0.0799 0.744892,-0.17656 0.239718,-0.1 0.45805,-0.23863 0.65005,-0.40753 l -0.218391,-0.21916 c -0.03218,-0.0322 -0.0487,-0.0754 -0.0487,-0.11754 0,-0.0434 0.01652,-0.0859 0.0487,-0.11805 0.03218,-0.0322 0.07522,-0.0488 0.117395,-0.0488 0.0433,0 0.08572,0.0166 0.117913,0.0488 l 0.216342,0.21711 c 0.165363,-0.19334 0.300755,-0.4149 0.397309,-0.65492 0.09324,-0.23333 0.151077,-0.48406 0.166616,-0.74628 h -0.338354 l -5.15e-4,-0.001 c -0.0455,0 -0.08743,-0.0195 -0.117396,-0.0493 -0.02997,-0.03 -0.0487,-0.072 -0.0487,-0.11754 0,-0.0467 0.01875,-0.0877 0.0487,-0.11753 0.02995,-0.03 0.07189,-0.0488 0.117396,-0.0488 h 0.33528 c -0.02108,-0.25891 -0.08425,-0.50662 -0.18302,-0.73551 -0.100994,-0.23667 -0.239897,-0.4537 -0.408589,-0.6426 l -0.204037,0.20479 -0.0021,0.002 c -0.03218,0.0311 -0.07428,0.0467 -0.115349,0.0467 -0.04218,0 -0.08572,-0.0166 -0.117911,-0.0488 -0.03218,-0.0322 -0.0487,-0.0759 -0.0487,-0.11805 0,-0.0434 0.01653,-0.0852 0.0487,-0.11753 l 0.200962,-0.2012 c -0.190889,-0.16221 -0.408532,-0.29349 -0.644922,-0.38905 -0.228623,-0.0922 -0.476152,-0.14861 -0.733614,-0.16527 z m -5.161442,0.47836 c 0.125426,0 0.239309,0.0513 0.321437,0.13344 0.08213,0.0822 0.133289,0.19675 0.133289,0.32233 0,0.12555 -0.05122,0.2385 -0.133289,0.32182 -0.08214,0.0822 -0.196011,0.13344 -0.321437,0.13344 -0.125414,0 -0.238716,-0.0513 -0.321948,-0.13344 -0.08214,-0.0822 -0.133292,-0.19627 -0.133292,-0.32182 0,-0.12557 0.05122,-0.24011 0.133292,-0.32233 l 0.0021,-0.002 c 0.08326,-0.0812 0.195614,-0.13088 0.319898,-0.13088 z m 9.950182,0 h 5.1e-4 c 0.125204,1.4e-4 0.238315,0.0514 0.321438,0.13344 0.08213,0.0822 0.13329,0.19675 0.13329,0.32233 0,0.12555 -0.05117,0.2385 -0.13329,0.32182 -0.08214,0.0822 -0.196542,0.13344 -0.321948,0.13344 -0.125412,0 -0.239312,-0.0513 -0.321438,-0.13344 l -0.0026,-0.002 c -0.08101,-0.0822 -0.13073,-0.19591 -0.13073,-0.31925 0,-0.12556 0.05116,-0.24011 0.133294,-0.32233 0.08201,-0.0832 0.196228,-0.13433 0.321437,-0.13447 z m -4.072557,0.74936 c 0.06438,-0.005 0.129749,0.0154 0.183019,0.0621 0.05215,0.0455 0.08117,0.10904 0.08561,0.17348 0.0045,0.0645 -0.01594,0.1299 -0.06255,0.18324 -0.291884,0.33222 -0.586043,0.66426 -0.874593,0.99983 -0.04661,0.0512 -0.107464,0.0787 -0.170718,0.0832 -0.06437,0.005 -0.129747,-0.0155 -0.183017,-0.0621 l -0.0036,-0.002 c -0.05105,-0.0455 -0.07869,-0.10763 -0.08202,-0.16989 -0.0045,-0.0644 0.01542,-0.1299 0.06203,-0.18323 l 0.872542,-0.99932 c 0.0455,-0.0522 0.10891,-0.0809 0.173279,-0.0852 z m -5.877625,8.26606 c 0.125426,0 0.239309,0.0513 0.321437,0.13345 0.08213,0.0822 0.133289,0.19676 0.133289,0.32233 0,0.12555 -0.05122,0.24011 -0.133289,0.32233 -0.08214,0.0822 -0.196011,0.13344 -0.321437,0.13344 -0.125414,0 -0.238716,-0.0513 -0.321948,-0.13344 -0.08214,-0.0822 -0.133292,-0.19677 -0.133292,-0.32233 0,-0.12557 0.05122,-0.24011 0.133292,-0.32233 l 0.0021,-0.002 c 0.08326,-0.0813 0.195614,-0.13089 0.319898,-0.13089 z m 9.950182,0 h 5.1e-4 c 0.125204,1.4e-4 0.238315,0.0514 0.321438,0.13345 0.08213,0.0822 0.13329,0.19676 0.13329,0.32233 0,0.12555 -0.05117,0.24011 -0.13329,0.32233 l -0.0021,0.002 c -0.08213,0.0812 -0.195184,0.13088 -0.31836,0.13088 -0.125412,0 -0.239824,-0.0513 -0.321951,-0.13345 -0.08213,-0.0822 -0.133291,-0.19625 -0.133291,-0.32181 0,-0.12557 0.05115,-0.2401 0.133291,-0.32233 0.08091,-0.0821 0.195203,-0.13331 0.320413,-0.13345 z m -7.046999,0.10778 h 4.143814 c 0.01553,0 0.02993,0.006 0.04101,0.0169 0.0099,0.0101 0.01692,0.0245 0.01692,0.0411 v 0.57844 c 0,0.0156 -0.0069,0.0305 -0.01692,0.0416 -0.0099,0.0101 -0.02548,0.0164 -0.04101,0.0164 H 60.21565 c -0.01553,0 -0.02992,-0.006 -0.04101,-0.0164 -0.0099,-0.0101 -0.01692,-0.0261 -0.01692,-0.0416 v -0.57844 c 0,-0.0156 0.0069,-0.03 0.01692,-0.0411 0.0099,-0.0101 0.02436,-0.0169 0.04101,-0.0169 z m 89.753089,9.76274 c 0.0648,0 0.11798,0.003 0.15943,0.008 0.0414,0.005 0.0737,0.0127 0.0968,0.0231 0.0234,0.0104 0.0403,0.0235 0.0507,0.039 0.0103,0.0156 0.0154,0.0336 0.0154,0.0544 v 5.19881 c 0,0.0208 -0.005,0.0388 -0.0154,0.0544 -0.0104,0.013 -0.0274,0.0245 -0.0507,0.0349 -0.0233,0.0104 -0.0555,0.0179 -0.0968,0.0231 -0.0414,0.005 -0.0947,0.008 -0.15943,0.008 -0.0622,0 -0.11387,-0.003 -0.15533,-0.008 -0.0414,-0.005 -0.0752,-0.0127 -0.101,-0.0231 -0.0234,-0.0104 -0.0403,-0.0219 -0.0507,-0.0349 -0.008,-0.0156 -0.0117,-0.0336 -0.0117,-0.0544 v -5.19881 c 0,-0.0208 0.004,-0.0388 0.0117,-0.0544 0.0103,-0.0156 0.0274,-0.0286 0.0507,-0.039 0.0258,-0.0104 0.0596,-0.0179 0.101,-0.0231 0.0414,-0.005 0.0932,-0.008 0.15533,-0.008 z m -73.177319,0.15141 c 0.253919,0 0.470247,0.0493 0.649027,0.14782 0.178778,0.0986 0.323833,0.23375 0.435246,0.40496 0.114002,0.17121 0.196817,0.3707 0.248639,0.59898 0.05181,0.22568 0.07792,0.46588 0.07792,0.7201 0,0.3061 -0.03364,0.58097 -0.100993,0.82481 -0.06477,0.24383 -0.16215,0.45138 -0.291701,0.62259 -0.12696,0.16861 -0.285064,0.29977 -0.474209,0.39316 -0.189147,0.0908 -0.405469,0.13601 -0.649025,0.13601 -0.103642,0 -0.199507,-0.0106 -0.2876,-0.0313 -0.0881,-0.0208 -0.174927,-0.0529 -0.260431,-0.097 -0.08292,-0.0441 -0.16573,-0.0999 -0.248641,-0.16732 -0.08292,-0.0674 -0.170741,-0.14685 -0.264019,-0.23764 v 1.75125 c 0,0.0207 -0.0055,0.0388 -0.0159,0.0544 -0.01036,0.0156 -0.02693,0.0286 -0.05024,0.039 -0.02331,0.0104 -0.05595,0.0179 -0.09741,0.0231 -0.04146,0.005 -0.09467,0.008 -0.159436,0.008 -0.06218,0 -0.11388,-0.003 -0.155336,-0.008 -0.04146,-0.005 -0.07508,-0.0127 -0.100994,-0.0231 -0.02332,-0.0104 -0.0404,-0.0234 -0.05075,-0.039 -0.0078,-0.0156 -0.01127,-0.0336 -0.01127,-0.0544 v -4.89138 c 0,-0.0233 0.0035,-0.0414 0.01127,-0.0544 0.0078,-0.0156 0.02332,-0.0286 0.04666,-0.039 0.02332,-0.0104 0.05343,-0.0164 0.08972,-0.019 0.03628,-0.005 0.08044,-0.008 0.132266,-0.008 0.05442,0 0.09807,0.003 0.131752,0.008 0.03628,0.003 0.0664,0.009 0.08972,0.019 0.02332,0.0104 0.03889,0.0234 0.04666,0.039 0.01035,0.013 0.01538,0.0311 0.01538,0.0544 v 0.47118 c 0.106232,-0.10895 0.208621,-0.20393 0.307081,-0.28435 0.09845,-0.0804 0.196831,-0.14624 0.295291,-0.19812 0.101054,-0.0545 0.203441,-0.0947 0.307082,-0.12062 0.106231,-0.0285 0.217658,-0.0431 0.334253,-0.0431 z m 3.820328,0 c 0.274647,0 0.508043,0.0442 0.699777,0.13242 0.194329,0.0882 0.353431,0.20729 0.477799,0.35774 0.12437,0.14787 0.215219,0.32325 0.272222,0.52558 0.05958,0.19975 0.0892,0.41381 0.0892,0.64209 v 0.11651 c 0,0.10117 -0.02559,0.17404 -0.07741,0.21814 -0.04923,0.0415 -0.106455,0.0621 -0.17123,0.0621 h -2.29312 c 0,0.19456 0.01958,0.36994 0.05844,0.52558 0.03887,0.15565 0.103612,0.2888 0.194298,0.40034 0.09068,0.11155 0.208636,0.19749 0.353733,0.25715 0.145096,0.0597 0.322266,0.0893 0.532141,0.0893 0.165825,0 0.313897,-0.0131 0.443449,-0.039 0.129549,-0.0285 0.240975,-0.0597 0.334253,-0.0934 0.09587,-0.0337 0.173664,-0.0634 0.233258,-0.0893 0.06218,-0.0285 0.10835,-0.0426 0.139443,-0.0426 0.01814,0 0.0337,0.005 0.04666,0.0154 0.01555,0.008 0.02759,0.0208 0.03539,0.039 0.0078,0.0182 0.01278,0.0438 0.01539,0.0775 0.0052,0.0311 0.0077,0.0703 0.0077,0.11702 0,0.0337 -9.98e-4,0.0634 -0.0035,0.0893 -0.0026,0.0233 -0.0066,0.0455 -0.0118,0.0662 -0.0026,0.0181 -0.0091,0.0352 -0.01948,0.0508 -0.0078,0.0155 -0.01932,0.0311 -0.03486,0.0467 -0.01295,0.013 -0.05462,0.0361 -0.124576,0.0698 -0.06995,0.0311 -0.160817,0.0623 -0.272219,0.0934 -0.111415,0.0311 -0.240908,0.0583 -0.388596,0.0816 -0.145095,0.0259 -0.300181,0.039 -0.466005,0.039 -0.287603,0 -0.540577,-0.0402 -0.758223,-0.12062 -0.215053,-0.0804 -0.396242,-0.20001 -0.543929,-0.35825 -0.147688,-0.15824 -0.259113,-0.35622 -0.334254,-0.59487 -0.07515,-0.23865 -0.112785,-0.51655 -0.112785,-0.83302 0,-0.30092 0.03915,-0.57076 0.116888,-0.80942 0.07773,-0.24125 0.189154,-0.44476 0.33425,-0.61078 0.147689,-0.16861 0.324861,-0.29674 0.532141,-0.38494 0.207282,-0.0908 0.439166,-0.13653 0.695677,-0.13653 z m 3.595269,0 c 0.09329,0 0.186635,0.008 0.279913,0.0236 0.09328,0.0156 0.177088,0.0346 0.252228,0.058 0.07514,0.0233 0.138887,0.0495 0.190708,0.078 0.05442,0.0259 0.09456,0.0496 0.120474,0.0703 0.02851,0.0208 0.04658,0.0388 0.05435,0.0544 0.01036,0.0156 0.01689,0.0336 0.01948,0.0544 0.0052,0.0182 0.0092,0.0413 0.0118,0.0698 0.0052,0.0285 0.0077,0.0637 0.0077,0.10522 0,0.0441 -0.0025,0.0828 -0.0077,0.11651 -0.0026,0.0311 -0.0091,0.0573 -0.01949,0.078 -0.0078,0.0207 -0.01832,0.0363 -0.03127,0.0467 -0.01295,0.008 -0.02701,0.0118 -0.04255,0.0118 -0.02331,0 -0.05694,-0.0146 -0.100994,-0.0431 -0.04405,-0.0285 -0.101267,-0.0582 -0.171227,-0.0893 -0.06995,-0.0337 -0.152771,-0.0649 -0.248639,-0.0934 -0.09328,-0.0285 -0.200685,-0.0426 -0.322461,-0.0426 -0.108825,0 -0.204692,0.0126 -0.287604,0.0385 -0.08292,0.0233 -0.151677,0.0585 -0.206087,0.10522 -0.05182,0.0441 -0.09197,0.0974 -0.120475,0.15962 -0.02592,0.0623 -0.03897,0.12959 -0.03897,0.20223 0,0.10117 0.02611,0.1871 0.07793,0.25714 0.05182,0.0674 0.119075,0.12674 0.201987,0.17862 0.08292,0.0519 0.17727,0.0986 0.2835,0.14012 0.106232,0.0415 0.21365,0.0842 0.32246,0.12831 0.111416,0.0441 0.220333,0.0933 0.326567,0.14782 0.108822,0.0545 0.204688,0.12081 0.287599,0.19863 0.08292,0.0778 0.149169,0.17129 0.198399,0.28024 0.05181,0.10895 0.07741,0.2386 0.07741,0.38905 0,0.179 -0.03364,0.33829 -0.100993,0.47836 -0.06478,0.14008 -0.15762,0.25817 -0.279399,0.35415 -0.121778,0.096 -0.267352,0.16885 -0.435758,0.21814 -0.168419,0.0493 -0.353624,0.0739 -0.555721,0.0739 -0.12437,0 -0.243321,-0.0106 -0.357324,-0.0313 -0.111413,-0.0182 -0.212295,-0.0413 -0.302981,-0.0698 -0.0881,-0.0311 -0.163384,-0.0623 -0.225568,-0.0934 -0.06218,-0.0337 -0.107867,-0.0634 -0.136367,-0.0893 -0.02851,-0.0259 -0.04908,-0.0626 -0.06203,-0.10933 -0.01295,-0.0467 -0.01948,-0.11 -0.01948,-0.19042 0,-0.0493 0.0025,-0.091 0.0077,-0.12472 0.0052,-0.0337 0.01172,-0.0609 0.01948,-0.0816 0.0078,-0.0207 0.01832,-0.0348 0.03127,-0.0426 0.01554,-0.0104 0.03261,-0.0159 0.05075,-0.0159 0.02851,0 0.06966,0.0181 0.124064,0.0544 0.057,0.0337 0.125769,0.0714 0.206089,0.11292 0.08291,0.0415 0.180288,0.0807 0.291703,0.11702 0.111414,0.0337 0.239396,0.0503 0.384494,0.0503 0.108821,0 0.207196,-0.0116 0.295291,-0.0349 0.0881,-0.0233 0.164894,-0.057 0.22967,-0.10111 0.06477,-0.0467 0.113961,-0.10498 0.147646,-0.17502 0.03628,-0.07 0.05435,-0.15295 0.05435,-0.24893 0,-0.0986 -0.02611,-0.182 -0.07792,-0.24945 -0.04923,-0.0674 -0.115486,-0.12673 -0.198398,-0.17861 -0.08292,-0.0519 -0.175761,-0.0976 -0.2794,-0.13653 -0.103641,-0.0415 -0.211561,-0.0842 -0.322976,-0.12831 -0.108821,-0.0441 -0.216229,-0.0934 -0.32246,-0.14782 -0.103641,-0.0571 -0.197,-0.12593 -0.279913,-0.20633 -0.08291,-0.0804 -0.150165,-0.1764 -0.201987,-0.28794 -0.04923,-0.11155 -0.07383,-0.24522 -0.07383,-0.40086 0,-0.13748 0.02611,-0.26813 0.07793,-0.39264 0.05441,-0.12711 0.134726,-0.23768 0.240948,-0.33106 0.106232,-0.096 0.238233,-0.17235 0.396284,-0.22942 0.160645,-0.0571 0.34736,-0.0857 0.559822,-0.0857 z m 3.571688,0 c 0.287603,0 0.537556,0.0427 0.750021,0.12832 0.215053,0.0856 0.393735,0.21022 0.536241,0.37365 0.142503,0.16342 0.248915,0.36192 0.318872,0.59538 0.07255,0.23347 0.108683,0.49678 0.108683,0.78991 0,0.28535 -0.03764,0.54866 -0.112785,0.78991 -0.07514,0.23865 -0.187562,0.44468 -0.337842,0.61848 -0.147678,0.1738 -0.334404,0.30998 -0.559821,0.40855 -0.222827,0.096 -0.481825,0.14423 -0.77719,0.14423 -0.287603,0 -0.539067,-0.0427 -0.75412,-0.12832 -0.212463,-0.0856 -0.390146,-0.21022 -0.532652,-0.37365 -0.142506,-0.16343 -0.248405,-0.36192 -0.318361,-0.59538 -0.06995,-0.23347 -0.105094,-0.49779 -0.105094,-0.7935 0,-0.28535 0.03613,-0.54767 0.108683,-0.78632 0.07514,-0.24125 0.186564,-0.44878 0.334254,-0.62258 0.150277,-0.17381 0.336996,-0.30847 0.559821,-0.40445 0.222828,-0.096 0.483335,-0.14423 0.78129,-0.14423 z m -7.194129,0.50197 c -0.158051,0 -0.29658,0.0302 -0.415764,0.0898 -0.119187,0.0597 -0.219072,0.13855 -0.299394,0.23713 -0.08033,0.0986 -0.142568,0.21415 -0.186604,0.34645 -0.04405,0.1297 -0.06864,0.26588 -0.07383,0.40855 h 1.896837 c 0.0078,-0.33722 -0.06752,-0.60205 -0.225571,-0.79401 -0.155459,-0.19196 -0.387345,-0.28794 -0.695677,-0.28794 z m 7.16696,0.0349 c -0.189144,0 -0.352778,0.0342 -0.490103,0.10163 -0.134731,0.0674 -0.246157,0.16342 -0.334254,0.28794 -0.0881,0.12192 -0.153836,0.26714 -0.197884,0.43575 -0.04146,0.16862 -0.06203,0.35253 -0.06203,0.55227 0,0.19196 0.01656,0.37237 0.05024,0.54098 0.03627,0.16861 0.09449,0.31635 0.174814,0.44346 0.08292,0.12451 0.193341,0.22451 0.330667,0.29974 0.137322,0.0726 0.307966,0.10881 0.512655,0.10881 0.186554,0 0.348688,-0.0337 0.486,-0.10111 0.137325,-0.0674 0.250262,-0.16191 0.338356,-0.28383 0.0881,-0.12192 0.15284,-0.26715 0.194296,-0.43576 0.04146,-0.16861 0.06203,-0.35455 0.06203,-0.55689 0,-0.18936 -0.01807,-0.36826 -0.05435,-0.53687 -0.03368,-0.16861 -0.09092,-0.31635 -0.171228,-0.44346 -0.08033,-0.12711 -0.18924,-0.22711 -0.326566,-0.29974 -0.137321,-0.0752 -0.307965,-0.11292 -0.512656,-0.11292 z m -11.08828,0.0159 c -0.08292,0 -0.164741,0.0131 -0.245049,0.039 -0.08033,0.0233 -0.161628,0.062 -0.244541,0.11651 -0.08291,0.0519 -0.169743,0.12172 -0.260428,0.20992 -0.09068,0.0856 -0.186552,0.19214 -0.287603,0.31925 v 1.39299 c 0.17619,0.21531 0.343328,0.38013 0.501381,0.49427 0.158053,0.11414 0.32368,0.17092 0.497277,0.17092 0.160644,0 0.298174,-0.0387 0.412177,-0.11651 0.116597,-0.0778 0.209441,-0.18134 0.279401,-0.31104 0.07254,-0.1297 0.125751,-0.27544 0.159435,-0.43627 0.03368,-0.16083 0.05075,-0.32263 0.05075,-0.48606 0,-0.17899 -0.01457,-0.35186 -0.04306,-0.51788 -0.02592,-0.16861 -0.07259,-0.31735 -0.139957,-0.44705 -0.06477,-0.1297 -0.152605,-0.23373 -0.26402,-0.31155 -0.111412,-0.0778 -0.249939,-0.11651 -0.415765,-0.11651 z m 75.283833,0.058 c 0.0649,0 0.11798,0.003 0.15943,0.008 0.0414,0.005 0.0737,0.0142 0.0969,0.0272 0.0234,0.0104 0.0404,0.0234 0.0508,0.039 0.0103,0.0156 0.0154,0.0322 0.0154,0.0503 v 0.83251 h 0.89767 c 0.0206,0 0.0388,0.006 0.0543,0.0159 0.0156,0.008 0.0285,0.0234 0.039,0.0467 0.013,0.0208 0.022,0.0479 0.0271,0.0816 0.005,0.0337 0.008,0.0754 0.008,0.12472 0,0.0934 -0.0115,0.16072 -0.0348,0.20222 -0.0234,0.0415 -0.0544,0.0621 -0.0933,0.0621 h -0.89766 v 1.95347 c 0,0.24125 0.0351,0.42416 0.1051,0.54867 0.0726,0.12193 0.20053,0.18273 0.38449,0.18273 0.0597,0 0.1128,-0.005 0.15943,-0.0154 0.0466,-0.013 0.0883,-0.026 0.12458,-0.039 0.0362,-0.013 0.0675,-0.0245 0.0933,-0.0349 0.0258,-0.013 0.049,-0.0195 0.0697,-0.0195 0.0129,0 0.0245,0.004 0.0348,0.0113 0.013,0.005 0.022,0.0172 0.0271,0.0354 0.008,0.0182 0.0143,0.0428 0.0194,0.0739 0.005,0.0311 0.008,0.0698 0.008,0.11651 0,0.0752 -0.005,0.13503 -0.0154,0.17913 -0.0104,0.0441 -0.0258,0.0762 -0.0466,0.097 -0.0207,0.0207 -0.0519,0.0403 -0.0933,0.0585 -0.0414,0.0181 -0.0891,0.0327 -0.14354,0.0431 -0.0519,0.013 -0.10753,0.023 -0.16714,0.0308 -0.0597,0.008 -0.11931,0.0118 -0.17889,0.0118 -0.18139,0 -0.33698,-0.0236 -0.46654,-0.0703 -0.12954,-0.0493 -0.23595,-0.12165 -0.31886,-0.21763 -0.0829,-0.0986 -0.14364,-0.22168 -0.18251,-0.36955 -0.0362,-0.15045 -0.0543,-0.32683 -0.0543,-0.52917 v -2.04688 h -0.48957 c -0.0389,0 -0.07,-0.0206 -0.0933,-0.0621 -0.0233,-0.0415 -0.0348,-0.10883 -0.0348,-0.20222 0,-0.0493 0.003,-0.091 0.008,-0.12472 0.008,-0.0337 0.0168,-0.0609 0.0271,-0.0816 0.0104,-0.0233 0.0234,-0.0389 0.039,-0.0467 0.0181,-0.0104 0.0371,-0.0159 0.058,-0.0159 h 0.48601 v -0.83251 c 0,-0.0181 0.004,-0.0347 0.0117,-0.0503 0.0104,-0.0156 0.0268,-0.0286 0.0503,-0.039 0.0258,-0.013 0.0596,-0.022 0.10099,-0.0272 0.0414,-0.005 0.0937,-0.008 0.15584,-0.008 z m -4.85435,0.88332 c 0.25132,0 0.46513,0.0286 0.64132,0.0857 0.17619,0.0571 0.31874,0.14149 0.42756,0.25304 0.10882,0.10895 0.18762,0.24512 0.23685,0.40855 0.0493,0.16343 0.0739,0.35387 0.0739,0.57177 v 2.36203 c 0,0.0311 -0.0101,0.0547 -0.0308,0.0703 -0.0208,0.0156 -0.0494,0.0271 -0.0856,0.0349 -0.0362,0.008 -0.0896,0.0118 -0.15943,0.0118 -0.0674,0 -0.12209,-0.004 -0.16354,-0.0118 -0.0388,-0.008 -0.067,-0.0193 -0.0851,-0.0349 -0.0181,-0.0156 -0.0271,-0.0392 -0.0271,-0.0703 v -0.35005 c -0.15287,0.16343 -0.32403,0.29056 -0.51317,0.38136 -0.18654,0.0908 -0.3848,0.13601 -0.59468,0.13601 -0.18396,0 -0.3511,-0.0246 -0.50138,-0.0739 -0.14768,-0.0467 -0.27467,-0.11554 -0.38091,-0.20633 -0.10364,-0.0908 -0.18494,-0.20235 -0.24453,-0.33465 -0.0571,-0.13229 -0.0856,-0.28254 -0.0856,-0.45115 0,-0.19715 0.0401,-0.36851 0.12046,-0.51377 0.0804,-0.14527 0.19525,-0.26587 0.34554,-0.36185 0.15027,-0.096 0.33448,-0.16734 0.55213,-0.21403 0.21765,-0.0493 0.46259,-0.0739 0.73464,-0.0739 h 0.4819 v -0.27255 c 0,-0.13488 -0.0146,-0.25398 -0.043,-0.35774 -0.0284,-0.10376 -0.0747,-0.18918 -0.13943,-0.25663 -0.0622,-0.07 -0.14401,-0.12231 -0.24506,-0.15603 -0.10109,-0.0363 -0.22552,-0.0544 -0.3732,-0.0544 -0.15806,0 -0.30061,0.0196 -0.42758,0.0585 -0.12436,0.0363 -0.23427,0.078 -0.33013,0.12472 -0.0933,0.0441 -0.1726,0.0853 -0.23737,0.12421 -0.0622,0.0363 -0.10887,0.0544 -0.13995,0.0544 -0.0207,0 -0.0387,-0.005 -0.0543,-0.0154 -0.0156,-0.0104 -0.0295,-0.026 -0.0425,-0.0467 -0.0104,-0.0207 -0.0183,-0.0469 -0.0236,-0.078 -0.005,-0.0337 -0.008,-0.0699 -0.008,-0.10881 0,-0.0648 0.004,-0.11561 0.0117,-0.15192 0.0103,-0.0389 0.0324,-0.0751 0.0662,-0.10881 0.0362,-0.0337 0.097,-0.0724 0.18251,-0.11651 0.0855,-0.0467 0.18387,-0.0884 0.29529,-0.12473 0.11141,-0.0389 0.23338,-0.0701 0.36552,-0.0934 0.13214,-0.0259 0.26567,-0.039 0.40039,-0.039 z m 12.76722,0 c 0.0336,0 0.0713,0.003 0.11279,0.008 0.044,0.003 0.0892,0.009 0.13585,0.019 0.0465,0.0104 0.0883,0.0224 0.12458,0.0354 0.0389,0.013 0.066,0.0255 0.0816,0.0385 0.0156,0.013 0.0255,0.026 0.0308,0.039 0.005,0.0104 0.009,0.025 0.0117,0.0431 0.005,0.0182 0.008,0.0453 0.008,0.0816 0.003,0.0337 0.004,0.0805 0.004,0.14012 0,0.0571 -0.002,0.1048 -0.004,0.14371 -0.003,0.0389 -0.008,0.0701 -0.0154,0.0934 -0.008,0.0208 -0.0182,0.0378 -0.0313,0.0508 -0.0104,0.0104 -0.0259,0.0154 -0.0466,0.0154 -0.0207,0 -0.0462,-0.005 -0.0774,-0.0154 -0.0284,-0.013 -0.0621,-0.0245 -0.101,-0.0349 -0.0362,-0.013 -0.0779,-0.025 -0.12456,-0.0354 -0.0465,-0.0104 -0.0972,-0.0154 -0.15174,-0.0154 -0.0649,0 -0.12802,0.0131 -0.1902,0.039 -0.0622,0.0259 -0.12844,0.0687 -0.19841,0.12831 -0.0675,0.0597 -0.13864,0.13856 -0.21377,0.23713 -0.0751,0.0986 -0.15795,0.21969 -0.24863,0.36236 v 2.30351 c 0,0.0208 -0.005,0.0388 -0.0154,0.0544 -0.0103,0.013 -0.0274,0.0245 -0.0507,0.0349 -0.0234,0.0104 -0.0555,0.0179 -0.0968,0.0231 -0.0414,0.005 -0.0947,0.008 -0.15945,0.008 -0.0622,0 -0.11387,-0.003 -0.15533,-0.008 -0.0414,-0.005 -0.0752,-0.0127 -0.10099,-0.0231 -0.0233,-0.0104 -0.0403,-0.0219 -0.0508,-0.0349 -0.008,-0.0156 -0.0117,-0.0336 -0.0117,-0.0544 v -3.50197 c 0,-0.0208 0.004,-0.0378 0.0117,-0.0508 0.008,-0.0156 0.0234,-0.0286 0.0466,-0.039 0.0233,-0.013 0.053,-0.0205 0.0892,-0.0231 0.0362,-0.005 0.0845,-0.008 0.14406,-0.008 0.0571,0 0.10367,0.003 0.13995,0.008 0.0389,0.003 0.0685,0.0101 0.0893,0.0231 0.0207,0.0104 0.0352,0.0234 0.043,0.039 0.0104,0.013 0.0154,0.0301 0.0154,0.0508 v 0.50966 c 0.0959,-0.14007 0.18521,-0.25414 0.26813,-0.34234 0.0855,-0.0882 0.1658,-0.15704 0.24095,-0.20633 0.0752,-0.0519 0.1489,-0.0871 0.22146,-0.10522 0.0752,-0.0208 0.15042,-0.0313 0.22557,-0.0313 z m 2.33208,0 c 0.25134,0 0.46464,0.0286 0.64083,0.0857 0.17619,0.0571 0.31873,0.14149 0.42755,0.25304 0.10882,0.10895 0.18814,0.24512 0.23737,0.40855 0.0493,0.16343 0.0739,0.35387 0.0739,0.57177 v 2.36203 c 0,0.0311 -0.0105,0.0547 -0.0313,0.0703 -0.0206,0.0156 -0.0494,0.0271 -0.0856,0.0349 -0.0362,0.008 -0.089,0.0118 -0.15892,0.0118 -0.0674,0 -0.12209,-0.004 -0.16354,-0.0118 -0.0388,-0.008 -0.0676,-0.0193 -0.0856,-0.0349 -0.0182,-0.0156 -0.0271,-0.0392 -0.0271,-0.0703 v -0.35005 c -0.15287,0.16343 -0.32352,0.29056 -0.51266,0.38136 -0.18656,0.0908 -0.38481,0.13601 -0.59469,0.13601 -0.18395,0 -0.3511,-0.0246 -0.50139,-0.0739 -0.14768,-0.0467 -0.27465,-0.11554 -0.38089,-0.20633 -0.10364,-0.0908 -0.18545,-0.20235 -0.24506,-0.33465 -0.0571,-0.13229 -0.0856,-0.28254 -0.0856,-0.45115 0,-0.19715 0.0401,-0.36851 0.12047,-0.51377 0.0804,-0.14527 0.19576,-0.26587 0.34605,-0.36185 0.15027,-0.096 0.33448,-0.16734 0.55213,-0.21403 0.21764,-0.0493 0.46207,-0.0739 0.73412,-0.0739 h 0.48242 v -0.27255 c 0,-0.13488 -0.0146,-0.25398 -0.043,-0.35774 -0.0284,-0.10376 -0.0753,-0.18918 -0.13995,-0.25663 -0.0622,-0.07 -0.1435,-0.12231 -0.24454,-0.15603 -0.10109,-0.0363 -0.22553,-0.0544 -0.37321,-0.0544 -0.15806,0 -0.3006,0.0196 -0.42756,0.0585 -0.12437,0.0363 -0.2348,0.078 -0.33067,0.12472 -0.0933,0.0441 -0.17207,0.0853 -0.23685,0.12421 -0.0622,0.0363 -0.10886,0.0544 -0.13995,0.0544 -0.0207,0 -0.0388,-0.005 -0.0543,-0.0154 -0.0156,-0.0104 -0.0296,-0.026 -0.0425,-0.0467 -0.0103,-0.0207 -0.0183,-0.0469 -0.0236,-0.078 -0.005,-0.0337 -0.008,-0.0699 -0.008,-0.10881 0,-0.0648 0.004,-0.11561 0.0117,-0.15192 0.0104,-0.0389 0.0324,-0.0751 0.0662,-0.10881 0.0362,-0.0337 0.097,-0.0724 0.18252,-0.11651 0.0855,-0.0467 0.18388,-0.0884 0.29529,-0.12473 0.11142,-0.0389 0.23339,-0.0701 0.36552,-0.0934 0.13215,-0.0259 0.26567,-0.039 0.40039,-0.039 z m -7.74625,0.0549 c 0.0622,0 0.11439,0.003 0.15585,0.008 0.0414,0.003 0.0737,0.0101 0.0968,0.0231 0.0258,0.0104 0.0439,0.0234 0.0543,0.039 0.0104,0.013 0.0159,0.0301 0.0159,0.0508 v 2.03867 c 0,0.20493 0.0141,0.36975 0.0426,0.49427 0.0311,0.12192 0.0762,0.22694 0.13585,0.31514 0.0622,0.0856 0.13998,0.15294 0.23327,0.20222 0.0933,0.0467 0.20219,0.0703 0.32656,0.0703 0.16063,0 0.31975,-0.0573 0.47779,-0.17143 0.16063,-0.11414 0.33081,-0.28147 0.50957,-0.50197 v -2.44722 c 0,-0.0208 0.004,-0.0378 0.0112,-0.0508 0.0104,-0.0156 0.0284,-0.0286 0.0543,-0.039 0.0258,-0.013 0.0586,-0.0205 0.0974,-0.0231 0.0414,-0.005 0.0947,-0.008 0.15945,-0.008 0.0622,0 0.11388,0.003 0.15533,0.008 0.0414,0.003 0.0742,0.0101 0.0973,0.0231 0.0234,0.0104 0.0398,0.0234 0.0503,0.039 0.013,0.013 0.0194,0.0301 0.0194,0.0508 v 3.50197 c 0,0.0208 -0.005,0.0388 -0.0154,0.0544 -0.008,0.013 -0.0234,0.0245 -0.0466,0.0349 -0.0233,0.0104 -0.0544,0.0179 -0.0933,0.0231 -0.0362,0.005 -0.0821,0.008 -0.13637,0.008 -0.0597,0 -0.10877,-0.003 -0.14764,-0.008 -0.0362,-0.005 -0.066,-0.0127 -0.0892,-0.0231 -0.0208,-0.0104 -0.0347,-0.0219 -0.0425,-0.0349 -0.008,-0.0156 -0.0117,-0.0336 -0.0117,-0.0544 v -0.46347 c -0.19951,0.2205 -0.39626,0.3813 -0.5906,0.48247 -0.19431,0.10116 -0.39159,0.15192 -0.59109,0.15192 -0.23318,0 -0.42994,-0.0387 -0.59057,-0.11651 -0.15805,-0.0778 -0.28656,-0.18284 -0.38501,-0.31514 -0.0985,-0.13489 -0.16972,-0.29067 -0.21378,-0.46707 -0.0414,-0.17899 -0.062,-0.39557 -0.062,-0.64979 v -2.12438 c 0,-0.0208 0.004,-0.0378 0.0117,-0.0508 0.0104,-0.0156 0.0284,-0.0286 0.0542,-0.039 0.0258,-0.013 0.0596,-0.0205 0.101,-0.0231 0.0414,-0.005 0.0932,-0.008 0.15533,-0.008 z m -7.15877,2.02687 c -0.17617,0 -0.32926,0.0156 -0.45883,0.0467 -0.12954,0.0285 -0.23695,0.0728 -0.32246,0.13243 -0.0855,0.0571 -0.14873,0.12691 -0.19018,0.20992 -0.0389,0.0804 -0.0585,0.17388 -0.0585,0.28024 0,0.18158 0.0568,0.32681 0.17073,0.43576 0.11659,0.10636 0.27871,0.15962 0.48599,0.15962 0.16842,0 0.32402,-0.0427 0.46652,-0.12831 0.14509,-0.0856 0.29668,-0.21676 0.45473,-0.39316 v -0.7432 z m 15.09932,0 c -0.17618,0 -0.32928,0.0156 -0.45883,0.0467 -0.12955,0.0285 -0.23695,0.0728 -0.32246,0.13243 -0.0855,0.0571 -0.14925,0.12691 -0.19071,0.20992 -0.0389,0.0804 -0.058,0.17388 -0.058,0.28024 0,0.18158 0.0567,0.32681 0.17072,0.43576 0.1166,0.10636 0.27872,0.15962 0.486,0.15962 0.16842,0 0.32401,-0.0427 0.46651,-0.12831 0.1451,-0.0856 0.29668,-0.21676 0.45473,-0.39316 v -0.7432 z M 60.109017,222.07766 c 0.269417,0 0.486512,0.21683 0.486509,0.48657 v 42.53186 c 0,0.26974 -0.217092,0.48709 -0.486509,0.48709 -0.269418,0 -0.485999,-0.21735 -0.485999,-0.48709 v -42.53186 c 0,-0.26974 0.216581,-0.48657 0.485999,-0.48657 z"
       inkscape:export-filename="C:\Users\cristiano_silva\OneDrive\Documentos\GitHub\DesafioPokemon\images\png_tipos\cards\card_voador.png"
       inkscape:export-xdpi="96"
       inkscape:export-ydpi="96" />
    <rect
       style="fill:#800000;stroke-width:5.99048;stroke-linecap:round;stroke-linejoin:round"
       id="rect888-5"
       width="239.58275"
       height="335.82892"
       x="-401.16827"
       y="32.099773" />
    <path
       style="opacity:0.527166;fill:none;stroke:#000000;stroke-width:3.12801;stroke-linecap:round;stroke-linejoin:round;stroke-miterlimit:4;stroke-dasharray:none;stroke-opacity:1;filter:url(#filter102085-4)"
       d="M 27.137038,291.2719 H 182.89709 l 5.4893,-2.11587 1.76278,-1.89059 -0.11238,-280.087985 -3.4148,-5.3317565"
       id="path101830-1"
       transform="matrix(0.95188573,0,0,0.96632231,-393.84276,46.647542)"
       sodipodi:nodetypes="cccccc" />
    <path
       id="rect52589-8"
       style="fill:#ffffff;stroke:none;stroke-width:0.499203;stroke-miterlimit:4;stroke-dasharray:none;stroke-opacity:1"
       d="m -369.28947,45.657922 c -5.54,0 -9.99991,4.41771 -9.99991,9.90531 V 317.42964 c 0,5.4876 4.45991,9.90533 9.99991,9.90533 h 145.07228 c 5.54,0 9.9999,-4.41773 9.9999,-9.90533 V 55.563232 c 0,-5.4876 -4.4599,-9.90531 -9.9999,-9.90531 z m 0.74311,5.00256 h 144.58187 c 2.77,0 4.99969,2.2086 4.99969,4.9524 V 317.57248 c 0,2.74377 -2.22969,4.95237 -4.99969,4.95237 h -144.58187 c -2.77,0 -5.00022,-2.2086 -5.00022,-4.95237 V 55.612882 c 0,-2.7438 2.23022,-4.9524 5.00022,-4.9524 z" />
    <rect
       style="fill:#ffffff;stroke:none;stroke-width:0.378403;stroke-miterlimit:4;stroke-dasharray:none;stroke-opacity:1"
       id="rect52589-0-6"
       width="150.78554"
       height="177.18199"
       x="-371.72614"
       y="143.53911"
       ry="4"
       rx="4" />
    <path
       style="fill:#808080;stroke:#808080;stroke-width:1;stroke-linecap:round;stroke-linejoin:miter;stroke-miterlimit:4;stroke-dasharray:none;stroke-opacity:1"
       d="m -346.08194,259.0065 v 42.79078"
       id="path68847-4" />
    <path
       style="fill:#808080;stroke:#808080;stroke-width:0.850489;stroke-linecap:round;stroke-linejoin:miter;stroke-miterlimit:4;stroke-dasharray:none;stroke-opacity:1"
       d="m -296.42711,185.21317 v 30.95194"
       id="path68847-0-6" />
    <path
       class="st0"
       d="m -266.75494,197.47494 c -0.13736,0 -0.24747,-0.0953 -0.24747,-0.21341 0,-0.11806 0.11121,-0.21342 0.24747,-0.21342 h 0.81505 v -1.19874 h -1.69936 c -0.13735,0 -0.24747,-0.0953 -0.24747,-0.21342 0,-0.11805 0.11122,-0.21342 0.24747,-0.21342 h 1.69936 v -1.33496 h -0.81505 c -0.13736,0 -0.24747,-0.0953 -0.24747,-0.21342 0,-0.11806 0.11121,-0.21342 0.24747,-0.21342 h 0.81505 v -1.22372 h -1.69936 c -0.13735,0 -0.24747,-0.0953 -0.24747,-0.21342 0,-0.11804 0.11122,-0.21341 0.24747,-0.21341 h 1.69936 v -1.28842 h -0.81505 c -0.13736,0 -0.24747,-0.0953 -0.24747,-0.21342 0,-0.11805 0.11121,-0.21341 0.24747,-0.21341 h 0.81505 v -1.27141 h -1.69936 c -0.13735,0 -0.24747,-0.0953 -0.24747,-0.2134 0,-0.11806 0.11122,-0.21343 0.24747,-0.21343 h 1.69936 v -0.9229 h -3.30678 v 12.781 h 3.30678 v -1.26118 h -1.69936 c -0.13735,0 -0.24747,-0.0953 -0.24747,-0.21342 0,-0.11806 0.11122,-0.21342 0.24747,-0.21342 h 1.69936 v -1.29183 z m -2.68697,-10.23365 h 3.69729 c 0.0647,0 0.12372,0.0262 0.16686,0.0704 0.0431,0.0431 0.0704,0.10212 0.0704,0.16687 v 13.1715 c 0,0.0647 -0.0262,0.12374 -0.0704,0.16687 -0.0431,0.0442 -0.10325,0.0704 -0.16686,0.0704 h -3.69729 c -0.0647,0 -0.12374,-0.0262 -0.16687,-0.0704 -0.0442,-0.0431 -0.0704,-0.10211 -0.0704,-0.16687 v -13.1715 c 0,-0.0647 0.0262,-0.12373 0.0704,-0.16687 0.0431,-0.0442 0.10211,-0.0704 0.16687,-0.0704 z"
       id="path88700-0"
       style="clip-rule:evenodd;fill:#808080;fill-opacity:1;fill-rule:evenodd;stroke:none;stroke-width:0.113518;stroke-opacity:1"
       sodipodi:nodetypes="sssccsssccsssccsssccsssccsssccccccsssccssscsscsscsscs" />
    <text
       xml:space="preserve"
       style="font-style:normal;font-variant:normal;font-weight:normal;font-stretch:normal;font-size:8.02335px;line-height:1.25;font-family:Calibri;-inkscape-font-specification:Calibri;fill:#808080;fill-opacity:1;stroke:none;stroke-width:0.300875;stroke-opacity:1"
       x="-260.27716"
       y="214.06255"
       id="text89916-0-9"><tspan
         sodipodi:role="line"
         id="tspan89914-8-2"
         style="font-style:normal;font-variant:normal;font-weight:normal;font-stretch:normal;font-size:8.02335px;font-family:Calibri;-inkscape-font-specification:Calibri;fill:#808080;fill-opacity:1;stroke:none;stroke-width:0.300875;stroke-opacity:1"
         x="-260.27716"
         y="214.06255">altura</tspan></text>
    <path
       d="m -345.98536,198.77631 h 4.17724 c 0.0157,0 0.0302,0.006 0.0414,0.0167 0.01,0.0102 0.0168,0.0246 0.0168,0.0413 v 0.58284 c 0,0.0157 -0.007,0.0302 -0.0168,0.0414 -0.01,0.0102 -0.0257,0.0167 -0.0414,0.0167 h -4.17724 c -0.0157,0 -0.0302,-0.006 -0.0414,-0.0167 -0.01,-0.0102 -0.0168,-0.0258 -0.0168,-0.0414 v -0.58284 c 0,-0.0157 0.007,-0.0302 0.0168,-0.0413 0.01,-0.0102 0.0246,-0.0167 0.0414,-0.0167 z m 2.12777,-10.08847 c 0.37813,0 0.73947,0.0749 1.06949,0.21144 0.34232,0.14209 0.65108,0.35015 0.90838,0.60745 0.25731,0.2573 0.46539,0.56607 0.60746,0.90839 0.13648,0.33002 0.21144,0.69136 0.21144,1.0695 0,0.37923 -0.075,0.73945 -0.21144,1.06947 -0.14207,0.34232 -0.35015,0.6511 -0.60746,0.90839 -0.2573,0.2573 -0.56606,0.46537 -0.90838,0.60746 -0.33002,0.13647 -0.69136,0.21144 -1.06949,0.21144 -0.37812,0 -0.73946,-0.0749 -1.06948,-0.21144 -0.34232,-0.14209 -0.65108,-0.35016 -0.90838,-0.60746 -0.25731,-0.25729 -0.46539,-0.56607 -0.60746,-0.90839 -0.13648,-0.33002 -0.21144,-0.69135 -0.21144,-1.06947 0,-0.37813 0.075,-0.73948 0.21144,-1.0695 0.14207,-0.34232 0.35015,-0.65109 0.60746,-0.90839 0.2573,-0.2573 0.56606,-0.46537 0.90838,-0.60745 0.33002,-0.13648 0.69136,-0.21144 1.06948,-0.21144 z m -5.27468,-0.59739 h 2.63007 c 0.16445,-0.12753 0.34344,-0.24388 0.53474,-0.3468 0.19465,-0.10405 0.40161,-0.19353 0.61864,-0.26626 0.2271,-0.0772 0.4665,-0.13647 0.71373,-0.17674 0.24165,-0.0391 0.49112,-0.0594 0.74506,-0.0594 0.25395,0 0.50342,0.02 0.74506,0.0594 0.24723,0.0403 0.48664,0.0995 0.71373,0.17674 0.21703,0.0739 0.42399,0.16334 0.61865,0.26626 0.19241,0.10291 0.37141,0.21816 0.53474,0.3468 h 2.61553 c 0.22039,0 0.43182,0.0448 0.62536,0.12418 0.20024,0.0828 0.38147,0.20584 0.5325,0.35686 0.15103,0.15103 0.27296,0.33113 0.35687,0.5325 0.0805,0.19242 0.12417,0.40386 0.12417,0.62537 v 9.51905 c 0,0.22039 -0.0448,0.43182 -0.12417,0.62535 -0.0828,0.20025 -0.20585,0.38149 -0.35687,0.53251 -0.15103,0.15103 -0.33114,0.27296 -0.5325,0.35686 -0.19242,0.0805 -0.40386,0.12418 -0.62536,0.12418 h -10.46995 c -0.22039,0 -0.43183,-0.0448 -0.62536,-0.12418 -0.20025,-0.0828 -0.38149,-0.20583 -0.5325,-0.35686 -0.15103,-0.15102 -0.27298,-0.33114 -0.35687,-0.53251 -0.0782,-0.19465 -0.12306,-0.40609 -0.12306,-0.62647 v -9.51906 c 0,-0.22038 0.0448,-0.43182 0.12418,-0.62535 0.0828,-0.20026 0.20583,-0.38147 0.35686,-0.53251 0.15102,-0.15103 0.33114,-0.27296 0.53251,-0.35687 0.19241,-0.0794 0.40385,-0.12305 0.62424,-0.12305 z m 0.22037,10.57735 c 0.12643,0 0.24165,0.0515 0.32444,0.13426 0.0828,0.0828 0.13423,0.198 0.13423,0.32442 0,0.12641 -0.0515,0.24164 -0.13423,0.32442 -0.0828,0.0828 -0.19801,0.13426 -0.32444,0.13426 -0.12642,0 -0.24052,-0.0515 -0.32442,-0.13426 -0.0828,-0.0828 -0.13423,-0.198 -0.13423,-0.32442 0,-0.12642 0.0515,-0.24164 0.13423,-0.32442 l 0.002,-0.002 c 0.0839,-0.0818 0.19689,-0.132 0.32217,-0.132 z m 0,-9.07717 c 0.12643,0 0.24165,0.0515 0.32444,0.13426 0.0828,0.0828 0.13423,0.19799 0.13423,0.32443 0,0.12641 -0.0515,0.24052 -0.13423,0.32441 -0.0828,0.0828 -0.19801,0.13424 -0.32444,0.13424 -0.12642,0 -0.24052,-0.0515 -0.32442,-0.13424 v 0 c -0.0828,-0.0828 -0.13423,-0.198 -0.13423,-0.32441 0,-0.12643 0.0515,-0.24165 0.13423,-0.32443 l 0.002,-0.002 c 0.0839,-0.0818 0.19689,-0.132 0.32217,-0.132 z m 10.03031,0 c 0.12642,0 0.24053,0.0515 0.32443,0.13426 0.0828,0.0828 0.13424,0.19799 0.13424,0.32443 0,0.12641 -0.0515,0.24052 -0.13424,0.32441 v 0 c -0.0828,0.0828 -0.19801,0.13424 -0.32443,0.13424 -0.12641,0 -0.24164,-0.0515 -0.32442,-0.13424 l -0.002,-0.002 c -0.0817,-0.0828 -0.132,-0.19689 -0.132,-0.32107 0,-0.12642 0.0515,-0.24163 0.13424,-0.32441 0.0828,-0.0839 0.19801,-0.13538 0.32443,-0.13538 z m 0,9.07717 c 0.12642,0 0.24053,0.0515 0.32443,0.13426 0.0828,0.0828 0.13424,0.198 0.13424,0.32442 0,0.12641 -0.0515,0.24164 -0.13424,0.32442 l -0.002,0.002 c -0.0828,0.0818 -0.19689,0.132 -0.32107,0.132 -0.12641,0 -0.24164,-0.0515 -0.32442,-0.13424 -0.0828,-0.0828 -0.13425,-0.19801 -0.13425,-0.32443 0,-0.12642 0.0515,-0.24163 0.13425,-0.32442 0.0817,-0.0828 0.19689,-0.13423 0.3233,-0.13423 z m -7.6676,-9.99786 h -2.58308 c -0.1432,0 -0.27856,0.0291 -0.40386,0.0806 -0.12977,0.0537 -0.24611,0.13312 -0.34457,0.23045 -0.0985,0.0985 -0.17675,0.2148 -0.23045,0.34457 -0.0515,0.12418 -0.0806,0.26065 -0.0806,0.40384 v 9.51907 c 0,0.14319 0.0291,0.27967 0.0806,0.40384 0.0537,0.12978 0.13312,0.24614 0.23045,0.34456 0.0985,0.0985 0.2148,0.17676 0.34457,0.23047 0.12417,0.0515 0.26066,0.0805 0.40386,0.0805 h 10.46995 c 0.14319,0 0.27856,-0.0291 0.40385,-0.0805 0.12977,-0.0537 0.24612,-0.13314 0.34456,-0.23047 0.0985,-0.0985 0.17676,-0.21478 0.23046,-0.34456 0.0515,-0.12417 0.0806,-0.26065 0.0806,-0.40384 v -9.52019 c 0,-0.14319 -0.0291,-0.27966 -0.0806,-0.40384 -0.0537,-0.12978 -0.13313,-0.24612 -0.23046,-0.34456 -0.0985,-0.0985 -0.21479,-0.17677 -0.34456,-0.23046 -0.12417,-0.0515 -0.26065,-0.0806 -0.40385,-0.0806 h -2.7151 c -0.003,0 -0.008,0 -0.0111,-0.001 -0.0291,-0.001 -0.0593,-0.006 -0.0872,-0.0167 l -0.002,-0.001 c -0.0302,-0.0114 -0.0582,-0.0269 -0.0839,-0.0491 -0.14655,-0.12195 -0.30988,-0.2327 -0.48775,-0.33002 -0.17564,-0.0962 -0.3647,-0.179 -0.56495,-0.24724 -0.19689,-0.0672 -0.40497,-0.11864 -0.622,-0.15326 -0.21031,-0.0335 -0.42846,-0.0515 -0.65444,-0.0515 -0.22486,0 -0.44413,0.0178 -0.65444,0.0515 -0.21479,0.037 -0.42287,0.0885 -0.61976,0.15438 -0.1969,0.0661 -0.3826,0.14766 -0.55488,0.24164 -0.1734,0.0939 -0.33449,0.20249 -0.48104,0.32108 -0.0257,0.0257 -0.0571,0.0458 -0.0917,0.0594 -0.0347,0.0145 -0.0716,0.0213 -0.10964,0.0213 h -0.14655 z m 4.72877,2.95338 c -0.0459,0 -0.0884,-0.0191 -0.11859,-0.0491 v 0 c -0.0302,-0.0302 -0.0492,-0.0727 -0.0492,-0.11852 0,-0.047 0.019,-0.0885 0.0492,-0.11852 0.0302,-0.0302 0.0727,-0.0491 0.11859,-0.0491 h 0.33785 c -0.0212,-0.26067 -0.085,-0.51013 -0.18459,-0.74058 -0.1018,-0.23829 -0.24164,-0.45643 -0.41168,-0.64662 l -0.20585,0.20585 -0.002,0.002 c -0.0324,0.0313 -0.075,0.047 -0.11634,0.047 -0.0425,0 -0.0861,-0.0167 -0.11859,-0.0491 v 0 c -0.0324,-0.0324 -0.0492,-0.0761 -0.0492,-0.11851 0,-0.0437 0.0168,-0.0861 0.0492,-0.11866 l 0.20249,-0.20248 c -0.19242,-0.16332 -0.41168,-0.29533 -0.64997,-0.39154 -0.23045,-0.0928 -0.47992,-0.14991 -0.73946,-0.16669 v 0.36134 c 0,0.047 -0.019,0.0884 -0.0492,0.11853 -0.0302,0.0302 -0.0727,0.0491 -0.11859,0.0491 -0.047,0 -0.0884,-0.0191 -0.11858,-0.0491 -0.0302,-0.0302 -0.0492,-0.0727 -0.0492,-0.11853 v -0.36023 c -0.25842,0.0202 -0.50454,0.0816 -0.73275,0.17789 -0.23605,0.0995 -0.45196,0.23492 -0.64214,0.4005 l 0.23493,0.23491 c 0.0324,0.0324 0.0492,0.0761 0.0492,0.11853 0,0.0437 -0.0168,0.0861 -0.0492,0.11864 -0.0324,0.0324 -0.0761,0.0491 -0.11859,0.0491 -0.0425,0 -0.0862,-0.0167 -0.11858,-0.0491 l -0.23493,-0.23492 c -0.16557,0.19129 -0.30093,0.40833 -0.39938,0.64548 -0.0951,0.22934 -0.15661,0.47658 -0.17563,0.73612 h 0.37365 c 0.047,0 0.0884,0.019 0.11858,0.0491 0.0302,0.0302 0.0492,0.0727 0.0492,0.11864 0,0.0458 -0.019,0.0884 -0.0492,0.11853 -0.0302,0.0302 -0.0727,0.0491 -0.11858,0.0491 h -0.37477 c 0.0168,0.26177 0.0761,0.51236 0.17116,0.74394 0.0973,0.23942 0.23381,0.45866 0.39938,0.65109 l 0.23157,-0.23158 c 0.0324,-0.0324 0.0761,-0.0491 0.11858,-0.0491 0.0436,0 0.0861,0.0167 0.11859,0.0491 0.0324,0.0324 0.0492,0.0761 0.0492,0.11854 0,0.0437 -0.0168,0.0861 -0.0492,0.11852 l -0.23269,0.23269 c 0.19242,0.16892 0.41392,0.30764 0.65332,0.40832 0.23269,0.0973 0.4844,0.15885 0.74841,0.17676 v -0.28751 c 0,-0.0458 0.019,-0.0885 0.0492,-0.11865 v 0 c 0.0302,-0.0303 0.0727,-0.0491 0.11858,-0.0491 0.0459,0 0.0884,0.0191 0.11858,0.0491 0.0302,0.0302 0.0492,0.0727 0.0492,0.11865 v 0.28975 c 0.26402,-0.0191 0.51685,-0.0806 0.75066,-0.17788 0.24164,-0.10064 0.46202,-0.24052 0.65556,-0.41057 l -0.22039,-0.22039 c -0.0324,-0.0324 -0.0492,-0.0761 -0.0492,-0.11853 0,-0.0437 0.0168,-0.0861 0.0492,-0.11852 0.0324,-0.0324 0.0761,-0.0491 0.11859,-0.0491 0.0436,0 0.0861,0.0167 0.11858,0.0491 l 0.21815,0.21815 c 0.16668,-0.19466 0.30317,-0.41727 0.40049,-0.65893 0.094,-0.23493 0.15215,-0.48775 0.16781,-0.75176 h -0.3412 z m -1.84027,0.14991 v 0 c -0.047,0.0515 -0.10852,0.0794 -0.17228,0.0839 -0.0649,0.005 -0.13089,-0.0157 -0.18459,-0.0626 l -0.003,-0.002 c -0.0515,-0.0458 -0.0794,-0.10848 -0.0828,-0.17116 -0.004,-0.0648 0.0157,-0.13089 0.0627,-0.18459 l 0.8793,-1.00571 c 0.0459,-0.0526 0.10964,-0.0818 0.17452,-0.0861 0.0649,-0.005 0.13089,0.0157 0.18459,0.0627 0.0526,0.0458 0.0817,0.10963 0.0862,0.17451 0.005,0.0649 -0.0157,0.1309 -0.0626,0.1846 -0.29422,0.33449 -0.59068,0.66898 -0.88154,1.00684 z"
       id="path88957-3"
       style="fill:#808080;fill-opacity:1;stroke:none;stroke-width:0.11187;stroke-opacity:1" />
    <text
       xml:space="preserve"
       style="font-style:normal;font-variant:normal;font-weight:normal;font-stretch:normal;font-size:8.02335px;line-height:1.25;font-family:Calibri;-inkscape-font-specification:Calibri;fill:#808080;fill-opacity:1;stroke:none;stroke-width:0.300875;stroke-opacity:1"
       x="-331.69788"
       y="212.55818"
       id="text89916-4"><tspan
         sodipodi:role="line"
         id="tspan89914-2"
         style="font-style:normal;font-variant:normal;font-weight:normal;font-stretch:normal;font-size:8.02335px;font-family:Calibri;-inkscape-font-specification:Calibri;fill:#808080;fill-opacity:1;stroke:none;stroke-width:0.300875;stroke-opacity:1"
         x="-331.69788"
         y="212.55818">peso</tspan></text>
    <path
       class="st1"
       d="m 166.08841,59.535307 c 0.0189,0.30506 -0.16815,0.534359 -0.29404,0.784677 -2.12604,4.229046 -7.57231,7.917419 -12.8063,7.906391 -1.1074,-0.0019 -2.21348,-0.0057 -3.31922,-0.07031 -0.10519,-0.0057 -0.28737,0.02488 -0.30673,0.08181 -0.0588,0.173992 0.11123,0.23831 0.23798,0.27669 1.22256,0.370132 2.46012,0.677529 3.72507,0.868769 1.84267,0.278689 3.67835,0.244304 5.50367,-0.129881 1.88073,-0.385496 3.48611,-1.320694 4.97032,-2.502855 0.22262,-0.177197 0.38483,-0.479617 0.73594,-0.462934 -0.12687,0.250996 -0.24664,0.505649 -0.38148,0.751971 -1.83967,3.358259 -4.7891,5.031724 -8.47847,5.58075 -1.01328,0.150805 -2.03459,0.178892 -3.05688,0.189241 -0.22695,0.0019 -0.45424,0.0038 -0.68052,0.0196 -0.0748,0.0057 -0.19392,0.01885 -0.16513,0.137232 0.017,0.06918 0.0817,0.150805 0.14628,0.179459 0.18059,0.0805 0.37047,0.142133 0.56003,0.200249 0.40685,0.124227 0.81804,0.233975 1.22322,0.362461 0.43356,0.137422 0.45526,0.165509 0.25934,0.600449 -0.71558,1.588336 -1.64075,3.047187 -2.77854,4.366543 -2.92639,3.393643 -6.59373,5.536716 -11.007,6.290326 -10.32882,1.763911 -19.69707,-5.044073 -21.5581,-14.862898 -1.88238,-9.931308 4.27978,-19.353949 14.10761,-21.693276 1.44151,-0.343101 2.90671,-0.484612 4.38892,-0.480616 2.89502,0.0075 5.79205,0.06372 8.68539,-0.01131 5.15322,-0.13384 10.23068,-0.829391 15.17532,-2.342984 1.4682,-0.449569 2.88399,-1.03064 4.22403,-1.788944 2.24051,-1.267611 4.03045,-3.027526 5.53803,-5.088466 0.63615,-0.869787 1.22457,-1.774938 1.83769,-2.662068 0.0598,-0.08634 0.11442,-0.221608 0.25266,-0.169845 0.1295,0.04845 0.0992,0.186622 0.0955,0.291714 -0.0661,1.846024 -0.23763,3.684677 -0.59877,5.49498 -0.70488,3.535173 -1.95983,6.8861 -3.79716,9.977699 -2.82093,4.746044 -6.93749,7.875024 -12.27262,9.354573 -1.37307,0.38082 -2.79689,0.497957 -4.21102,0.565047 -2.097,0.09972 -4.20001,0.127807 -6.27966,-0.272015 -0.11084,-0.0213 -0.22494,-0.02903 -0.33776,-0.03639 -0.0792,-0.0057 -0.17116,-6.6e-4 -0.18059,0.09915 -0.004,0.04204 0.0464,0.105751 0.0892,0.131577 0.0961,0.05768 0.2016,0.10085 0.30539,0.144584 3.28952,1.385107 6.69018,2.161414 10.28341,1.850699 2.27256,-0.196575 4.49005,-0.646162 6.60942,-1.51561 1.22155,-0.501295 2.32563,-1.180145 3.23176,-2.156721 0.0935,-0.100473 0.2203,-0.169843 0.33143,-0.253993 z"
       id="path6-9-6"
       style="clip-rule:evenodd;opacity:0.2;fill:#fefefe;fill-rule:evenodd;stroke-width:0.333758"
       inkscape:export-filename="C:\Users\cristiano_silva\OneDrive\Documentos\GitHub\DesafioPokemon\images\png_tipos\cards\card_voador.png"
       inkscape:export-xdpi="96"
       inkscape:export-ydpi="96" />
  </g>
  <style
     type="text/css"
     id="style88698">.st0{fill-rule:evenodd;clip-rule:evenodd;}</style>
</svg>
